<?xml version="1.0" encoding="utf-8"?>
<!-- Generator: Adobe Illustrator 26.5.0, SVG Export Plug-In . SVG Version: 6.00 Build 0)  -->
<svg version="1.1" id="Layer_1" xmlns="http://www.w3.org/2000/svg" xmlns:xlink="http://www.w3.org/1999/xlink" x="0px" y="0px"
	 viewBox="0 0 512 512" style="enable-background:new 0 0 512 512;" xml:space="preserve">
<style type="text/css">
	.st0{fill:#585858;}
</style>
<g id="XMLID_1_">
	<path id="XMLID_2_" class="st0" d="M511.7,188.88l-5.61-33.24c-1.82-10.66-5.89-19.36-9.26-19.36c-3.37,0-6.03,8.84-6.03,19.64v8.7
		c0,10.8-8.84,19.64-19.78,19.64h-8.7c-0.7,0-1.26,0-1.82,0v23.84c0.56,0,1.26,0,1.82,0h32.82
		C506.09,208.23,513.52,199.54,511.7,188.88z M433.15,160.69H380c-0.42,0-0.84,0-1.26,0h-54.56c-0.7,0-1.26,0-1.82,0.14v-5.05
		c0-10.8-2.66-19.64-6.03-19.64c-3.37,0-7.43,8.7-9.26,19.36l-5.61,33.24c-1.82,10.66,5.61,19.36,16.41,19.36h32.82
		c3.37,0,6.59-0.56,9.4-1.4c-0.98,5.61-5.89,9.82-11.78,9.82h-46c-7.43,0-13.04-6.73-11.92-14.03l4.63-27.91
		c1.26-7.29-4.49-14.03-11.92-14.03H54.46c-4.91,0-9.12,2.95-10.94,7.01L0.47,232.92c-0.7,1.12-0.7,2.52,0.28,3.51l8.42,9.82
		c0.98,1.26,2.95,1.4,4.21,0.42l29.31-23V363.5c0,6.59,5.33,12.06,12.06,12.06h64.94c6.59,0,12.06-5.33,12.06-12.06v-48.67
		c0-6.59,5.33-12.06,12.06-12.06H305.8c6.59,0,12.06,5.33,12.06,12.06v48.67c0,6.59,5.33,12.06,12.06,12.06h64.94
		c6.59,0,12.06-5.33,12.06-12.06v-52.32h-34.5c-10.8,0-19.64-8.84-19.64-19.64v-33.66c0-6.45,3.09-12.06,7.85-15.71v40.53
		c0,10.8,8.84,19.64,19.78,19.64h53.16c10.8,0,19.78-8.84,19.78-19.64V180.46C452.93,169.52,443.95,160.69,433.15,160.69z"/>
</g>
</svg>
